<svg width="13" height="17" viewBox="0 0 13 17" fill="none" xmlns="http://www.w3.org/2000/svg">
<path d="M12.3887 9.0708C12.3887 8.81201 12.3057 8.59961 12.1396 8.43359C11.9736 8.26758 11.7661 8.18457 11.5171 8.18457C11.3853 8.18457 11.2632 8.21143 11.1509 8.26514C11.0435 8.31396 10.9482 8.37988 10.8652 8.46289L9.21729 10.1035L6.90283 12.7109L7.4375 13.0186L7.54004 10.4771V1.79053C7.54004 1.51709 7.45459 1.29248 7.28369 1.1167C7.11768 0.940918 6.89795 0.853027 6.62451 0.853027C6.35596 0.853027 6.13623 0.940918 5.96533 1.1167C5.79932 1.29248 5.71631 1.51709 5.71631 1.79053V10.4771L5.81885 13.0186L6.35352 12.7109L4.03906 10.1035L2.38379 8.46289C2.30078 8.37988 2.20557 8.31396 2.09814 8.26514C1.99072 8.21143 1.87109 8.18457 1.73926 8.18457C1.49023 8.18457 1.28271 8.26758 1.1167 8.43359C0.950684 8.59961 0.867676 8.81201 0.867676 9.0708C0.867676 9.31494 0.962891 9.53223 1.15332 9.72266L5.95068 14.5347C6.04346 14.6274 6.14844 14.6982 6.26562 14.7471C6.38281 14.7959 6.50244 14.8203 6.62451 14.8203C6.75146 14.8203 6.87354 14.7959 6.99072 14.7471C7.11279 14.6982 7.21777 14.6274 7.30566 14.5347L12.103 9.72266C12.2935 9.53223 12.3887 9.31494 12.3887 9.0708ZM12.3887 15.7065C12.3887 15.4526 12.3057 15.2402 12.1396 15.0693C11.9736 14.9033 11.7661 14.8203 11.5171 14.8203H1.74658C1.49756 14.8203 1.2876 14.9033 1.1167 15.0693C0.950684 15.2402 0.867676 15.4526 0.867676 15.7065C0.867676 15.9556 0.950684 16.1655 1.1167 16.3364C1.2876 16.5073 1.49756 16.5928 1.74658 16.5928H11.5171C11.7661 16.5928 11.9736 16.5073 12.1396 16.3364C12.3057 16.1655 12.3887 15.9556 12.3887 15.7065Z" fill="white" fill-opacity="0.6"/>
</svg>
