<svg width="20" height="16" viewBox="0 0 20 16" fill="none" xmlns="http://www.w3.org/2000/svg">
<path d="M3.27002 11.8281H4.56641V12.9341C4.56641 14.5015 5.38672 15.3071 6.96875 15.3071H16.9663C18.5483 15.3071 19.3687 14.4941 19.3687 12.9341V5.97607C19.3687 4.40869 18.5483 3.5957 16.9663 3.5957H15.604V2.49707C15.604 0.929688 14.7764 0.116699 13.2017 0.116699H3.27002C1.68799 0.116699 0.867676 0.929688 0.867676 2.49707V9.45508C0.867676 11.0151 1.68799 11.8281 3.27002 11.8281ZM3.35791 10.3926C2.67676 10.3926 2.30322 10.041 2.30322 9.33057V2.61426C2.30322 1.90381 2.67676 1.55225 3.35791 1.55225H13.1138C13.7876 1.55225 14.1685 1.90381 14.1685 2.61426V3.5957H6.96875C5.38672 3.5957 4.56641 4.40869 4.56641 5.97607V10.3926H3.35791ZM7.05664 13.8789C6.37549 13.8789 6.00195 13.52 6.00195 12.8096V6.10059C6.00195 5.39014 6.37549 5.03125 7.05664 5.03125H16.8784C17.5522 5.03125 17.9331 5.39014 17.9331 6.10059V12.8096C17.9331 13.52 17.5522 13.8789 16.8784 13.8789H7.05664ZM9.96436 11.9819C9.96436 12.3115 10.3232 12.4507 10.6016 12.2896L14.8569 9.79932C15.1206 9.63818 15.1133 9.27197 14.8496 9.11084L10.6016 6.62061C10.3232 6.45947 9.96436 6.59131 9.96436 6.92822V11.9819Z" fill="white" fill-opacity="0.6"/>
</svg>
