<svg width="15" height="8" viewBox="0 0 15 8" fill="none" xmlns="http://www.w3.org/2000/svg">
<path d="M7.45215 7.81348C7.60352 7.80859 7.74268 7.7793 7.86963 7.72559C8.00146 7.66699 8.12598 7.5791 8.24316 7.46191L13.7437 1.81494C13.9341 1.62939 14.0293 1.40234 14.0293 1.13379C14.0293 0.953125 13.9854 0.787109 13.8975 0.635742C13.8096 0.484375 13.6899 0.364746 13.5386 0.276855C13.3921 0.188965 13.2285 0.14502 13.0479 0.14502C12.7744 0.14502 12.5352 0.245117 12.3301 0.445312L7.12256 5.80664H7.78906L2.56689 0.445312C2.36182 0.245117 2.12256 0.14502 1.84912 0.14502C1.66846 0.14502 1.50244 0.188965 1.35107 0.276855C1.20459 0.364746 1.0874 0.484375 0.999512 0.635742C0.911621 0.787109 0.867676 0.953125 0.867676 1.13379C0.867676 1.27051 0.889648 1.39502 0.933594 1.50732C0.982422 1.61963 1.05322 1.72461 1.146 1.82227L6.66113 7.46191C6.90039 7.69629 7.16406 7.81348 7.45215 7.81348Z" fill="white" fill-opacity="0.6"/>
</svg>
