<svg width="20" height="18" viewBox="0 0 20 18" fill="none" xmlns="http://www.w3.org/2000/svg">
<path d="M6.97314 1.40967H16.2456C16.1943 0.757812 15.8135 0.40625 15.1104 0.40625H8.10107C7.40527 0.40625 7.01709 0.757812 6.97314 1.40967ZM5.479 3.51904H17.7397C17.6372 2.82324 17.2856 2.42773 16.5093 2.42773H6.70947C5.93311 2.42773 5.58154 2.82324 5.479 3.51904ZM8.47461 17.0029H16.9414C18.5161 17.0029 19.3438 16.1826 19.3438 14.6226V7.09326C19.3438 5.52588 18.5161 4.71289 16.9414 4.71289H6.27002C4.68799 4.71289 3.86768 5.52588 3.86768 7.09326V9.46631C4.10205 9.42969 4.34375 9.40039 4.58545 9.40039C4.82715 9.40039 5.06152 9.42969 5.30322 9.46631V7.21045C5.30322 6.5 5.67676 6.14844 6.35791 6.14844H16.8535C17.5273 6.14844 17.9082 6.5 17.9082 7.21045V14.498C17.9082 15.2085 17.5273 15.5674 16.8535 15.5674H9.17773C9.03857 16.0874 8.79688 16.5781 8.47461 17.0029ZM4.58545 17.9844C6.63623 17.9844 8.35742 16.2705 8.35742 14.2124C8.35742 12.147 6.65088 10.4478 4.58545 10.4478C2.52002 10.4478 0.813477 12.147 0.813477 14.2124C0.813477 16.2852 2.52002 17.9844 4.58545 17.9844ZM3.34766 15.6919V12.7329C3.34766 12.4033 3.67725 12.2568 3.96289 12.4253L6.35059 13.8608C6.65088 14.0366 6.66553 14.3882 6.39453 14.5493L3.96289 15.9922C3.67725 16.168 3.34766 16.0215 3.34766 15.6919Z" fill="white" fill-opacity="0.6"/>
</svg>
