<svg width="16" height="16" viewBox="0 0 16 16" fill="none" xmlns="http://www.w3.org/2000/svg">
<path d="M4.34668 8.70801H7.94287C8.12354 8.70801 8.2749 8.64697 8.39697 8.5249C8.51904 8.40283 8.58008 8.25146 8.58008 8.0708V3.3833C8.58008 3.20264 8.51904 3.05127 8.39697 2.9292C8.2749 2.80713 8.12354 2.74609 7.94287 2.74609C7.76709 2.74609 7.61816 2.80713 7.49609 2.9292C7.37402 3.05127 7.31299 3.20264 7.31299 3.3833V7.44092H4.34668C4.16602 7.44092 4.01221 7.50195 3.88525 7.62402C3.76318 7.74609 3.70215 7.89502 3.70215 8.0708C3.70215 8.25146 3.76318 8.40283 3.88525 8.5249C4.01221 8.64697 4.16602 8.70801 4.34668 8.70801ZM7.9502 15.3511C8.99512 15.3511 9.979 15.1509 10.9019 14.7505C11.8247 14.355 12.6353 13.8057 13.3335 13.1025C14.0366 12.3994 14.5884 11.5889 14.9888 10.6709C15.3892 9.74805 15.5894 8.76172 15.5894 7.71191C15.5894 6.66699 15.3892 5.68555 14.9888 4.76758C14.5884 3.84473 14.0366 3.03174 13.3335 2.32861C12.6353 1.62549 11.8223 1.07617 10.8945 0.680664C9.97168 0.280273 8.98779 0.0800781 7.94287 0.0800781C6.89795 0.0800781 5.91406 0.280273 4.99121 0.680664C4.06836 1.07617 3.25537 1.62549 2.55225 2.32861C1.854 3.03174 1.30469 3.84473 0.904297 4.76758C0.508789 5.68555 0.311035 6.66699 0.311035 7.71191C0.311035 8.76172 0.508789 9.74805 0.904297 10.6709C1.30469 11.5889 1.85645 12.3994 2.55957 13.1025C3.2627 13.8057 4.07568 14.355 4.99854 14.7505C5.92139 15.1509 6.90527 15.3511 7.9502 15.3511ZM7.9502 13.6738C7.125 13.6738 6.35107 13.52 5.62842 13.2124C4.91064 12.9048 4.27832 12.48 3.73145 11.938C3.18457 11.3911 2.75732 10.7588 2.44971 10.041C2.14697 9.31836 1.99561 8.54199 1.99561 7.71191C1.99561 6.88672 2.14697 6.11523 2.44971 5.39746C2.75732 4.6748 3.18213 4.04004 3.72412 3.49316C4.271 2.94629 4.90332 2.51904 5.62109 2.21143C6.34375 1.90381 7.11768 1.75 7.94287 1.75C8.77295 1.75 9.54688 1.90381 10.2646 2.21143C10.9873 2.51904 11.6196 2.94629 12.1616 3.49316C12.7085 4.04004 13.1357 4.6748 13.4434 5.39746C13.7559 6.11523 13.9121 6.88672 13.9121 7.71191C13.9121 8.54199 13.7583 9.31836 13.4507 10.041C13.1431 10.7588 12.7158 11.3911 12.1689 11.938C11.6221 12.48 10.9873 12.9048 10.2646 13.2124C9.54688 13.52 8.77539 13.6738 7.9502 13.6738Z" fill="white" fill-opacity="0.6"/>
</svg>
