<svg width="15" height="15" viewBox="0 0 15 15" fill="none" xmlns="http://www.w3.org/2000/svg">
<path d="M2.55469 14.6641H12.0156C12.8594 14.6641 13.4974 14.4479 13.9297 14.0156C14.362 13.5885 14.5781 12.9583 14.5781 12.125V2.61719C14.5781 1.77865 14.362 1.14583 13.9297 0.71875C13.4974 0.291667 12.8594 0.078125 12.0156 0.078125H2.55469C1.71094 0.078125 1.07292 0.291667 0.640625 0.71875C0.208333 1.14583 -0.0078125 1.77865 -0.0078125 2.61719V12.125C-0.0078125 12.9583 0.208333 13.5885 0.640625 14.0156C1.07292 14.4479 1.71094 14.6641 2.55469 14.6641ZM2.64844 13.125C2.28385 13.125 2.00521 13.0312 1.8125 12.8438C1.625 12.6562 1.53125 12.3724 1.53125 11.9922V2.74219C1.53125 2.36719 1.625 2.08594 1.8125 1.89844C2.00521 1.71094 2.28385 1.61719 2.64844 1.61719H11.9219C12.2812 1.61719 12.5573 1.71094 12.75 1.89844C12.9427 2.08594 13.0391 2.36719 13.0391 2.74219V11.9922C13.0391 12.3724 12.9427 12.6562 12.75 12.8438C12.5573 13.0312 12.2812 13.125 11.9219 13.125H2.64844ZM5.82812 10.4375L10.3203 7.80469C10.487 7.70573 10.5677 7.5625 10.5625 7.375C10.5625 7.18229 10.4818 7.03906 10.3203 6.94531L5.82812 4.28906C5.65625 4.1901 5.47917 4.17708 5.29688 4.25C5.11979 4.32292 5.03125 4.45573 5.03125 4.64844V10.0859C5.03125 10.2839 5.11719 10.4193 5.28906 10.4922C5.46094 10.5651 5.64062 10.5469 5.82812 10.4375Z" fill="white" fill-opacity="0.6"/>
</svg>
