<svg width="18" height="16" viewBox="0 0 18 16" fill="none" xmlns="http://www.w3.org/2000/svg">
<path d="M9.14404 3.50049C8.95361 3.50049 8.79248 3.56641 8.66064 3.69824C8.52881 3.83008 8.46289 3.98877 8.46289 4.17432V8.0708C8.46289 8.16846 8.47754 8.26123 8.50684 8.34912C8.54102 8.43213 8.58984 8.51514 8.65332 8.59814L10.3599 10.854C10.5015 11.0298 10.6626 11.1348 10.8433 11.1689C11.0288 11.1982 11.2046 11.1543 11.3706 11.0371C11.5317 10.9248 11.6196 10.7759 11.6343 10.5903C11.6489 10.3999 11.5952 10.2241 11.4731 10.063L9.12207 6.9209L9.81787 9.02295V4.17432C9.81787 3.98877 9.75195 3.83008 9.62012 3.69824C9.48828 3.56641 9.32959 3.50049 9.14404 3.50049ZM9.41504 15.3511C10.46 15.3511 11.4414 15.1509 12.3594 14.7505C13.2822 14.355 14.0952 13.8057 14.7983 13.1025C15.5015 12.3994 16.0532 11.5889 16.4536 10.6709C16.854 9.74805 17.0542 8.76172 17.0542 7.71191C17.0542 6.66699 16.854 5.68555 16.4536 4.76758C16.0532 3.84473 15.5015 3.03174 14.7983 2.32861C14.0952 1.62549 13.2822 1.07617 12.3594 0.680664C11.4414 0.280273 10.46 0.0800781 9.41504 0.0800781C8.37012 0.0800781 7.38867 0.277832 6.4707 0.67334C5.55273 1.06396 4.74219 1.6084 4.03906 2.30664C3.33594 3.00488 2.78418 3.81299 2.38379 4.73096C1.9834 5.64893 1.78076 6.62793 1.77588 7.66797H3.45312C3.45801 6.84277 3.61426 6.07373 3.92188 5.36084C4.22949 4.64307 4.65674 4.01562 5.20361 3.47852C5.75049 2.94141 6.38281 2.52148 7.10059 2.21875C7.81836 1.91113 8.58984 1.75732 9.41504 1.75732C10.2402 1.75732 11.0117 1.91113 11.7295 2.21875C12.4521 2.52637 13.0845 2.95361 13.6265 3.50049C14.1733 4.04248 14.6006 4.6748 14.9082 5.39746C15.2207 6.11523 15.377 6.88672 15.377 7.71191C15.377 8.54199 15.2207 9.31836 14.9082 10.041C14.6006 10.7588 14.1733 11.3911 13.6265 11.938C13.0845 12.4849 12.4521 12.9121 11.7295 13.2197C11.0117 13.5273 10.2402 13.6787 9.41504 13.6738C8.78516 13.6738 8.18701 13.5835 7.62061 13.4028C7.05908 13.2222 6.53906 12.9658 6.06055 12.6338C5.58691 12.2969 5.16699 11.9014 4.80078 11.4473C4.62988 11.2617 4.43213 11.147 4.20752 11.103C3.98291 11.0542 3.77295 11.1079 3.57764 11.2642C3.39209 11.4058 3.28955 11.5938 3.27002 11.8281C3.25537 12.0576 3.34326 12.2847 3.53369 12.5093C3.97314 13.0708 4.50293 13.5664 5.12305 13.9961C5.74805 14.4258 6.42676 14.7578 7.15918 14.9922C7.89648 15.2314 8.64844 15.3511 9.41504 15.3511ZM0.904297 6.1665C0.704102 6.1665 0.552734 6.21289 0.450195 6.30566C0.352539 6.39844 0.306152 6.51807 0.311035 6.66455C0.315918 6.80615 0.37207 6.9502 0.479492 7.09668L2.35449 9.66016C2.48145 9.83105 2.63281 9.9165 2.80859 9.9165C2.98438 9.91162 3.1333 9.82617 3.25537 9.66016L5.1377 7.08936C5.24023 6.94287 5.2915 6.79883 5.2915 6.65723C5.29639 6.51562 5.25 6.39844 5.15234 6.30566C5.05469 6.21289 4.90576 6.1665 4.70557 6.1665H0.904297Z" fill="white" fill-opacity="0.6"/>
</svg>
