<svg width="20" height="16" viewBox="0 0 20 16" fill="none" xmlns="http://www.w3.org/2000/svg">
<path d="M2.88916 12.9268H17.479C18.79 12.9268 19.4932 12.2236 19.4932 10.9053V2.46777C19.4932 1.14941 18.79 0.446289 17.479 0.446289H2.88916C1.5708 0.446289 0.867676 1.14941 0.867676 2.46777V10.9053C0.867676 12.2236 1.5708 12.9268 2.88916 12.9268ZM2.96973 11.5278C2.50098 11.5278 2.2666 11.3008 2.2666 10.8247V2.54834C2.2666 2.07227 2.50098 1.84521 2.96973 1.84521H17.3911C17.8599 1.84521 18.0942 2.07227 18.0942 2.54834V10.8247C18.0942 11.3008 17.8599 11.5278 17.3911 11.5278H2.96973ZM12.3594 5.41943C12.7256 5.33154 12.8354 5.24365 12.8354 4.81152V3.37598C12.8354 3.07568 12.7183 2.95117 12.3228 3.04639L10.1841 3.58105C9.81055 3.66895 9.72998 3.75684 9.72998 4.19629V7.4043C9.72998 7.71924 9.70801 7.77051 9.34912 7.86572L8.68262 8.0415C7.98682 8.22461 7.44482 8.63477 7.44482 9.34521C7.44482 9.98242 7.9209 10.4365 8.66797 10.4365C9.72266 10.4365 10.4404 9.68213 10.4404 8.61279V6.18848C10.4404 5.93213 10.499 5.86621 10.6528 5.83691L12.3594 5.41943ZM6.43408 15.4829H13.9268C14.293 15.4829 14.5933 15.1826 14.5933 14.8237C14.5933 14.4575 14.293 14.1572 13.9268 14.1572H6.43408C6.06787 14.1572 5.7749 14.4575 5.7749 14.8237C5.7749 15.1826 6.06787 15.4829 6.43408 15.4829Z" fill="white" fill-opacity="0.6"/>
</svg>
