<svg width="19" height="15" viewBox="0 0 19 15" fill="none" xmlns="http://www.w3.org/2000/svg">
<path d="M3.35059 14.626H15.7944C16.605 14.626 17.2202 14.416 17.6401 13.9961C18.0601 13.5762 18.27 12.9683 18.27 12.1724V3.27344C18.27 2.47266 18.0601 1.8623 17.6401 1.44238C17.2202 1.02246 16.605 0.8125 15.7944 0.8125H3.35059C2.54004 0.8125 1.92236 1.02246 1.49756 1.44238C1.07764 1.85742 0.867676 2.46777 0.867676 3.27344V12.1724C0.867676 12.9683 1.07764 13.5762 1.49756 13.9961C1.92236 14.416 2.54004 14.626 3.35059 14.626ZM3.48242 12.9927C3.16016 12.9927 2.91357 12.9121 2.74268 12.751C2.57666 12.585 2.49365 12.3335 2.49365 11.9966V3.44189C2.49365 3.10498 2.57666 2.85352 2.74268 2.6875C2.91357 2.52148 3.16016 2.43848 3.48242 2.43848H15.6553C15.9727 2.43848 16.2168 2.52148 16.3877 2.6875C16.5586 2.85352 16.644 3.10498 16.644 3.44189V11.9966C16.644 12.3335 16.5586 12.585 16.3877 12.751C16.2168 12.9121 15.9727 12.9927 15.6553 12.9927H3.48242ZM8.19189 10.6196L12.4399 8.13672C12.5962 8.04395 12.6719 7.90723 12.667 7.72656C12.667 7.5459 12.5913 7.41162 12.4399 7.32373L8.19189 4.81885C8.03076 4.72607 7.86475 4.71631 7.69385 4.78955C7.52295 4.85791 7.4375 4.98242 7.4375 5.16309V10.2827C7.4375 10.4634 7.52051 10.5903 7.68652 10.6636C7.85254 10.7368 8.021 10.7222 8.19189 10.6196Z" fill="white" fill-opacity="0.6"/>
</svg>
